<svg width="400" height="400" viewBox="0 0 400 400" fill="none" xmlns="http://www.w3.org/2000/svg">
<path d="M200 250.328C227.795 250.328 250.328 227.795 250.328 200C250.328 172.205 227.795 149.672 200 149.672C172.205 149.672 149.672 172.205 149.672 200C149.672 227.795 172.205 250.328 200 250.328Z" fill="white"/>
<path d="M123.831 113.805C130.182 113.736 135.275 118.829 135.206 125.18C135.138 131.531 129.934 136.735 123.583 136.803L74.5857 137.331C68.2348 137.4 63.1418 132.307 63.2103 125.956C63.2787 119.605 68.4826 114.401 74.8335 114.333L123.831 113.805Z" fill="white"/>
<path d="M57.7799 75.6408C53.2889 71.1498 53.2889 63.8684 57.7799 59.3773C62.271 54.8863 69.5524 54.8863 74.0434 59.3773L131.79 117.124C136.281 121.615 136.281 128.897 131.79 133.388C127.299 137.879 120.018 137.879 115.527 133.388L57.7799 75.6408Z" fill="white"/>
<path d="M112.735 76.4309C112.804 70.08 118.008 64.8761 124.359 64.8077C130.71 64.7392 135.803 69.8322 135.734 76.1831L135.206 125.18C135.138 131.531 129.934 136.735 123.583 136.803C117.232 136.872 112.139 131.779 112.207 125.428L112.735 76.4309Z" fill="white"/>
<path d="M274.103 287.81C267.752 287.879 262.659 282.786 262.728 276.435C262.796 270.084 268 264.88 274.351 264.812L323.348 264.284C329.699 264.215 334.792 269.308 334.724 275.659C334.655 282.01 329.451 287.214 323.1 287.282L274.103 287.81Z" fill="white"/>
<path d="M340.38 326.2C344.871 330.691 344.871 337.972 340.38 342.463C335.888 346.954 328.607 346.954 324.116 342.463L266.235 284.582C261.744 280.091 261.744 272.81 266.235 268.318C270.726 263.827 278.007 263.827 282.498 268.318L340.38 326.2Z" fill="white"/>
<path d="M285.199 325.184C285.13 331.535 279.926 336.739 273.575 336.807C267.224 336.876 262.131 331.783 262.2 325.432L262.728 276.435C262.796 270.084 268 264.88 274.351 264.812C280.702 264.743 285.795 269.836 285.727 276.187L285.199 325.184Z" fill="white"/>
<path d="M113.622 276.531C113.553 270.18 118.646 265.087 124.997 265.156C131.348 265.224 136.552 270.428 136.62 276.779L137.148 325.776C137.217 332.127 132.124 337.22 125.773 337.151C119.422 337.083 114.218 331.879 114.15 325.528L113.622 276.531Z" fill="white"/>
<path d="M75.73 342.309C71.239 346.8 63.9576 346.8 59.4666 342.309C54.9756 337.818 54.9756 330.537 59.4666 326.046L116.941 268.571C121.432 264.08 128.713 264.08 133.204 268.571C137.695 273.062 137.695 280.344 133.204 284.835L75.73 342.309Z" fill="white"/>
<path d="M76.2477 287.626C69.8968 287.558 64.6929 282.354 64.6245 276.003C64.556 269.652 69.649 264.559 75.9999 264.628L124.997 265.156C131.348 265.224 136.552 270.428 136.62 276.779C136.689 283.13 131.596 288.223 125.245 288.154L76.2477 287.626Z" fill="white"/>
<path d="M287.769 125.861C287.837 132.212 282.744 137.305 276.393 137.237C270.043 137.168 264.839 131.964 264.77 125.613L264.242 76.6162C264.174 70.2653 269.267 65.1723 275.618 65.2408C281.969 65.3092 287.172 70.5131 287.241 76.864L287.769 125.861Z" fill="white"/>
<path d="M326.161 59.5821C330.652 55.091 337.934 55.091 342.425 59.5821C346.916 64.0731 346.916 71.3545 342.425 75.8455L284.503 133.767C280.012 138.258 272.731 138.258 268.24 133.767C263.749 129.276 263.749 121.995 268.24 117.504L326.161 59.5821Z" fill="white"/>
<path d="M325.143 114.766C331.494 114.834 336.698 120.038 336.766 126.389C336.835 132.74 331.742 137.833 325.391 137.765L276.393 137.237C270.043 137.168 264.839 131.964 264.77 125.613C264.702 119.262 269.795 114.169 276.146 114.238L325.143 114.766Z" fill="white"/>
<path d="M207.089 85.191C211.629 89.6333 211.629 96.8358 207.089 101.278C202.55 105.721 195.191 105.721 190.652 101.278L155.632 67.0053C151.093 62.563 151.093 55.3605 155.632 50.9181C160.171 46.4757 167.531 46.4757 172.07 50.9181L207.089 85.191Z" fill="white"/>
<path d="M187.37 11.5C187.37 5.14871 192.519 0 198.87 0C205.222 0 210.37 5.14873 210.37 11.5V93.1664C210.37 99.5177 205.222 104.666 198.87 104.666C192.519 104.666 187.37 99.5177 187.37 93.1664V11.5Z" fill="white"/>
<path d="M225.671 50.9181C230.21 46.4757 237.57 46.4757 242.109 50.9181C246.648 55.3605 246.648 62.563 242.109 67.0054L207.089 101.278C202.55 105.721 195.191 105.721 190.652 101.278C186.112 96.8358 186.112 89.6333 190.652 85.191L225.671 50.9181Z" fill="white"/>
<path d="M190.308 314.49C185.769 310.048 185.769 302.845 190.308 298.403C194.847 293.961 202.206 293.961 206.745 298.403L241.765 332.676C246.304 337.118 246.304 344.321 241.765 348.763C237.226 353.205 229.866 353.205 225.327 348.763L190.308 314.49Z" fill="white"/>
<path d="M210.027 388.5C210.027 394.851 204.878 400 198.527 400C192.175 400 187.027 394.851 187.027 388.5V306.644C187.027 300.292 192.175 295.144 198.527 295.144C204.878 295.144 210.027 300.292 210.027 306.644V388.5Z" fill="white"/>
<path d="M171.726 348.763C167.187 353.205 159.827 353.205 155.288 348.763C150.749 344.321 150.749 337.118 155.288 332.676L190.308 298.403C194.847 293.961 202.206 293.961 206.745 298.403C211.285 302.845 211.285 310.048 206.745 314.49L171.726 348.763Z" fill="white"/>
<path d="M84.8057 193.037C89.248 188.498 96.4506 188.498 100.893 193.037C105.335 197.576 105.335 204.935 100.893 209.475L66.6201 244.494C62.1777 249.033 54.9752 249.033 50.5328 244.494C46.0904 239.955 46.0904 232.596 50.5328 228.056L84.8057 193.037Z" fill="white"/>
<path d="M11.5 212.756C5.14874 212.756 0 207.607 0 201.256C0 194.904 5.14873 189.756 11.5 189.756L92.7811 189.756C99.1324 189.756 104.281 194.904 104.281 201.256C104.281 207.607 99.1324 212.756 92.7811 212.756L11.5 212.756Z" fill="white"/>
<path d="M50.5328 174.455C46.0904 169.916 46.0904 162.556 50.5328 158.017C54.9752 153.478 62.1777 153.478 66.6201 158.017L100.893 193.037C105.335 197.576 105.335 204.935 100.893 209.475C96.4506 214.014 89.2481 214.014 84.8057 209.475L50.5328 174.455Z" fill="white"/>
<path d="M314.486 209.638C310.044 214.177 302.841 214.177 298.399 209.638C293.956 205.099 293.956 197.739 298.399 193.2L332.672 158.181C337.114 153.641 344.317 153.641 348.759 158.181C353.201 162.72 353.201 170.079 348.759 174.618L314.486 209.638Z" fill="white"/>
<path d="M388.5 189.919C394.851 189.919 400 195.068 400 201.419C400 207.77 394.851 212.919 388.5 212.919H306.586C300.235 212.919 295.086 207.77 295.086 201.419C295.086 195.068 300.235 189.919 306.586 189.919H388.5Z" fill="white"/>
<path d="M348.759 228.22C353.201 232.759 353.201 240.118 348.759 244.658C344.317 249.197 337.114 249.197 332.672 244.658L298.399 209.638C293.956 205.099 293.956 197.739 298.399 193.2C302.841 188.661 310.044 188.661 314.486 193.2L348.759 228.22Z" fill="white"/>
</svg>
