<svg width="469" height="459" viewBox="0 0 469 459" fill="none" xmlns="http://www.w3.org/2000/svg">
<circle cx="234.5" cy="229.282" r="120.785" stroke="white" stroke-width="20"/>
<path d="M385.421 213.215C382.492 216.144 382.492 220.893 385.421 223.822L433.151 271.552C436.08 274.481 440.829 274.481 443.758 271.552C446.687 268.623 446.687 263.874 443.758 260.945L401.331 218.519L443.758 176.092C446.687 173.163 446.687 168.415 443.758 165.486C440.829 162.557 436.08 162.557 433.151 165.486L385.421 213.215ZM469 211.019H390.725V226.019H469V211.019Z" fill="white"/>
<path d="M83.5787 223.822C86.5076 220.893 86.5076 216.144 83.5787 213.215L35.849 165.486C32.92 162.557 28.1713 162.557 25.2424 165.486C22.3134 168.415 22.3134 173.163 25.2424 176.092L67.6688 218.519L25.2424 260.945C22.3134 263.874 22.3134 268.623 25.2424 271.552C28.1713 274.481 32.92 274.481 35.849 271.552L83.5787 223.822ZM6.55671e-07 226.019L78.2754 226.019L78.2754 211.019L-6.55671e-07 211.019L6.55671e-07 226.019Z" fill="white"/>
<path d="M229.523 83.5787C232.452 86.5076 237.201 86.5076 240.129 83.5787L287.859 35.849C290.788 32.92 290.788 28.1713 287.859 25.2424C284.93 22.3134 280.181 22.3134 277.253 25.2424L234.826 67.6688L192.4 25.2424C189.471 22.3134 184.722 22.3134 181.793 25.2424C178.864 28.1713 178.864 32.92 181.793 35.849L229.523 83.5787ZM227.326 3.27835e-07L227.326 78.2754L242.326 78.2754L242.326 -3.27835e-07L227.326 3.27835e-07Z" fill="white"/>
<path d="M120.284 127.784C124.426 127.784 127.784 124.426 127.784 120.284L127.784 52.7835C127.784 48.6414 124.426 45.2835 120.284 45.2835C116.141 45.2835 112.784 48.6414 112.784 52.7835V112.784H52.7835C48.6414 112.784 45.2835 116.141 45.2835 120.284C45.2835 124.426 48.6414 127.784 52.7835 127.784L120.284 127.784ZM59.5352 70.1418L114.98 125.587L125.587 114.98L70.1418 59.5352L59.5352 70.1418Z" fill="white"/>
<path d="M348.325 330.389C344.183 330.389 340.825 333.747 340.825 337.889V405.389C340.825 409.531 344.183 412.889 348.325 412.889C352.468 412.889 355.825 409.531 355.825 405.389V345.389H415.825C419.968 345.389 423.325 342.031 423.325 337.889C423.325 333.747 419.968 330.389 415.825 330.389H348.325ZM409.074 388.031L353.629 332.585L343.022 343.192L398.467 398.637L409.074 388.031Z" fill="white"/>
<path d="M127.784 337.889C127.784 333.747 124.426 330.389 120.284 330.389H52.7835C48.6414 330.389 45.2835 333.747 45.2835 337.889C45.2835 342.031 48.6414 345.389 52.7835 345.389H112.784V405.389C112.784 409.531 116.141 412.889 120.284 412.889C124.426 412.889 127.784 409.531 127.784 405.389L127.784 337.889ZM70.1418 398.637L125.587 343.192L114.98 332.585L59.5352 388.031L70.1418 398.637Z" fill="white"/>
<path d="M340.825 120.283C340.825 124.426 344.183 127.783 348.325 127.783L415.825 127.783C419.968 127.783 423.325 124.426 423.325 120.283C423.325 116.141 419.968 112.783 415.825 112.783H355.825V52.7835C355.825 48.6414 352.468 45.2835 348.325 45.2835C344.183 45.2835 340.825 48.6414 340.825 52.7835V120.283ZM398.467 59.5351L343.022 114.98L353.629 125.587L409.074 70.1417L398.467 59.5351Z" fill="white"/>
<path d="M240.129 374.985C237.201 372.056 232.452 372.056 229.523 374.985L181.793 422.714C178.864 425.643 178.864 430.392 181.793 433.321C184.722 436.25 189.471 436.25 192.4 433.321L234.826 390.895L277.253 433.321C280.181 436.25 284.93 436.25 287.859 433.321C290.788 430.392 290.788 425.643 287.859 422.714L240.129 374.985ZM242.326 458.563L242.326 380.288L227.326 380.288L227.326 458.563L242.326 458.563Z" fill="white"/>
</svg>
