<svg width="845" height="829" viewBox="0 0 845 829" fill="none" xmlns="http://www.w3.org/2000/svg">
<circle cx="422.5" cy="414.5" r="194.5" stroke="white" stroke-width="12"/>
<path d="M657.757 393.757C655.414 396.101 655.414 399.9 657.757 402.243L695.941 440.426C698.284 442.77 702.083 442.77 704.426 440.426C706.77 438.083 706.77 434.284 704.426 431.941L670.485 398L704.426 364.059C706.77 361.716 706.77 357.917 704.426 355.574C702.083 353.23 698.284 353.23 695.941 355.574L657.757 393.757ZM845 392L662 392L662 404L845 404L845 392Z" fill="white"/>
<path d="M187.243 402.243C189.586 399.899 189.586 396.101 187.243 393.757L149.059 355.574C146.716 353.23 142.917 353.23 140.574 355.574C138.23 357.917 138.23 361.716 140.574 364.059L174.515 398L140.574 431.941C138.23 434.284 138.23 438.083 140.574 440.426C142.917 442.77 146.716 442.77 149.059 440.426L187.243 402.243ZM0 404H183V392H0L0 404Z" fill="white"/>
<path d="M418.757 187.243C421.1 189.586 424.899 189.586 427.243 187.243L465.426 149.059C467.77 146.716 467.77 142.917 465.426 140.574C463.083 138.23 459.284 138.23 456.941 140.574L423 174.515L389.059 140.574C386.716 138.23 382.917 138.23 380.574 140.574C378.23 142.917 378.23 146.716 380.574 149.059L418.757 187.243ZM417 -2.62268e-07L417 183L429 183L429 2.62268e-07L417 -2.62268e-07Z" fill="white"/>
<path d="M247.401 253.401C250.714 253.401 253.401 250.714 253.401 247.401V193.401C253.401 190.087 250.714 187.401 247.401 187.401C244.087 187.401 241.401 190.087 241.401 193.401V241.401H193.401C190.087 241.401 187.401 244.087 187.401 247.401C187.401 250.714 190.087 253.401 193.401 253.401H247.401ZM113.757 122.243L243.158 251.643L251.643 243.158L122.243 113.757L113.757 122.243Z" fill="white"/>
<path d="M597 575C593.686 575 591 577.686 591 581V635C591 638.314 593.686 641 597 641C600.314 641 603 638.314 603 635V587H651C654.314 587 657 584.314 657 581C657 577.686 654.314 575 651 575H597ZM730.643 706.158L601.243 576.757L592.757 585.243L722.158 714.643L730.643 706.158Z" fill="white"/>
<path d="M253.401 581C253.401 577.686 250.714 575 247.401 575H193.401C190.087 575 187.401 577.686 187.401 581C187.401 584.314 190.087 587 193.401 587H241.401V635C241.401 638.314 244.087 641 247.401 641C250.714 641 253.401 638.314 253.401 635V581ZM122.243 714.643L251.643 585.243L243.158 576.757L113.757 706.158L122.243 714.643Z" fill="white"/>
<path d="M591 247.401C591 250.714 593.686 253.401 597 253.401L651 253.401C654.314 253.401 657 250.714 657 247.401C657 244.087 654.314 241.401 651 241.401L603 241.401L603 193.401C603 190.087 600.314 187.401 597 187.401C593.686 187.401 591 190.087 591 193.401L591 247.401ZM722.158 113.757L592.757 243.158L601.243 251.643L730.643 122.243L722.158 113.757Z" fill="white"/>
<path d="M427.243 641.757C424.899 639.414 421.1 639.414 418.757 641.757L380.574 679.941C378.23 682.284 378.23 686.083 380.574 688.426C382.917 690.77 386.716 690.77 389.059 688.426L423 654.485L456.941 688.426C459.284 690.77 463.083 690.77 465.426 688.426C467.77 686.083 467.77 682.284 465.426 679.941L427.243 641.757ZM429 829L429 646L417 646L417 829L429 829Z" fill="white"/>
</svg>
