<svg width="24" height="24" viewBox="0 0 24 24" fill="none" xmlns="http://www.w3.org/2000/svg">
<g clip-path="url(#clip0_26_214)">
<path d="M12 16C14.2091 16 16 14.2091 16 12C16 9.79086 14.2091 8 12 8C9.79086 8 8 9.79086 8 12C8 14.2091 9.79086 16 12 16Z" fill="white"/>
<path d="M5.5 12L1 12" stroke="white" stroke-width="1.5" stroke-linecap="round"/>
<path d="M5.5 12L3.37868 14.1213" stroke="white" stroke-width="1.5" stroke-linecap="round"/>
<path d="M3.37868 9.87868L5.5 12" stroke="white" stroke-width="1.5" stroke-linecap="round"/>
<path d="M18.5 12L23 12" stroke="white" stroke-width="1.5" stroke-linecap="round"/>
<path d="M18.5 12L20.6213 9.87867" stroke="white" stroke-width="1.5" stroke-linecap="round"/>
<path d="M20.6213 14.1213L18.5 12" stroke="white" stroke-width="1.5" stroke-linecap="round"/>
<path d="M12 18.6287L12 23.1287" stroke="white" stroke-width="1.5" stroke-linecap="round"/>
<path d="M12 18.6287L14.1213 20.75" stroke="white" stroke-width="1.5" stroke-linecap="round"/>
<path d="M9.87868 20.75L12 18.6287" stroke="white" stroke-width="1.5" stroke-linecap="round"/>
<path d="M12 5.371L12 0.871004" stroke="white" stroke-width="1.5" stroke-linecap="round"/>
<path d="M12 5.371L9.87868 3.24968" stroke="white" stroke-width="1.5" stroke-linecap="round"/>
<path d="M14.1213 3.24968L12 5.371" stroke="white" stroke-width="1.5" stroke-linecap="round"/>
<path d="M7.40391 16.5961L4.22194 19.7781" stroke="white" stroke-width="1.5" stroke-linecap="round"/>
<path d="M7.40392 16.5961V19.5961" stroke="white" stroke-width="1.5" stroke-linecap="round"/>
<path d="M4.40391 16.5961H7.40391" stroke="white" stroke-width="1.5" stroke-linecap="round"/>
<path d="M16.5963 7.40376L19.7783 4.22177" stroke="white" stroke-width="1.5" stroke-linecap="round"/>
<path d="M16.5963 7.40375V4.40375" stroke="white" stroke-width="1.5" stroke-linecap="round"/>
<path d="M19.5963 7.40376H16.5963" stroke="white" stroke-width="1.5" stroke-linecap="round"/>
<path d="M16.6873 16.6871L19.8693 19.8691" stroke="white" stroke-width="1.5" stroke-linecap="round"/>
<path d="M16.6873 16.6871H19.6873" stroke="white" stroke-width="1.5" stroke-linecap="round"/>
<path d="M16.6873 19.6871V16.6871" stroke="white" stroke-width="1.5" stroke-linecap="round"/>
<path d="M7.3127 7.31254L4.13072 4.13057" stroke="white" stroke-width="1.5" stroke-linecap="round"/>
<path d="M7.3127 7.31255H4.3127" stroke="white" stroke-width="1.5" stroke-linecap="round"/>
<path d="M7.3127 4.31255V7.31255" stroke="white" stroke-width="1.5" stroke-linecap="round"/>
</g>
<defs>
<clipPath id="clip0_26_214">
<rect width="24" height="24" fill="white"/>
</clipPath>
</defs>
</svg>
