<svg width="50" height="50" xmlns="http://www.w3.org/2000/svg">
 <g id="Layer_1">
  <title>Layer 1</title>
  <path d="m8.22734,35.75245c0.16474,0 1.0906,-1.35078 1.97694,-2.9654c0.92452,-1.68417 2.33067,-3.55273 3.78913,-5.60132c1.35798,-1.90744 2.95462,-4.34557 4.11862,-6.2603c1.14816,-1.88867 1.71743,-3.7564 2.30643,-5.10708c0.56263,-1.29024 0.94816,-2.65766 1.31796,-3.29489c0.29814,-0.51375 0.49423,-0.98847 0.65898,-1.15321c0.32949,-0.32949 0.63005,-0.47811 0.82372,-0.16475c0.17322,0.28028 0.32949,0.82372 0.49423,1.15321c0.49424,0.98847 0.55342,1.65596 0.65898,2.30643c0.1669,1.02848 0.42229,1.84476 0.82372,2.63591c0.70325,1.38599 1.33746,2.46177 1.64745,3.13015c0.52789,1.1382 0.54498,2.09646 1.15321,3.13015c0.35446,0.60241 0.49423,0.82372 0.49423,1.64745c0,0.98847 -0.06039,1.4864 0,1.97694c0.08299,0.67417 0.11197,0.66323 0.16474,0.98847c0.08345,0.51424 0.16475,0.65898 0.32949,0.98847c0.16474,0.32949 0.06965,0.73279 0.32949,1.15321c0.19367,0.31336 0.74802,0.50305 0.82372,0.82372c0.08464,0.35853 0.50574,0.43188 0.98847,0.98847c0.34134,0.39357 1.01452,0.70215 1.4827,1.64745c0.30147,0.60869 0.66851,0.75568 0.65898,0.98847c-0.29147,7.12389 -5.74655,4.80894 -6.2603,5.10708c-0.63723,0.3698 -1.18237,0.22161 -1.97694,0.49424c-0.34844,0.11955 -0.95943,0.4096 -1.31796,0.49423c-0.32067,0.0757 -0.66779,-0.0757 -0.98847,0c-0.35853,0.08464 -0.82372,0.16475 -0.82372,0.16475c-0.32949,0 -0.82372,0 -1.4827,0c-0.16474,0 -0.49423,0 -0.82372,0c-0.49423,0 -1.15938,0.10065 -1.97693,0c-0.67417,-0.083 -1.45366,-0.4096 -1.81219,-0.49424c-0.48101,-0.11355 -0.6966,0.18913 -1.15321,0c-0.4305,-0.17832 -0.99217,-0.2691 -1.4827,-0.32949c-0.67417,-0.083 -1.32883,-0.30934 -1.64745,-0.49424c-0.51375,-0.29814 -1.16409,-0.30933 -1.4827,-0.49423c-0.51375,-0.29814 -0.79469,-0.57434 -1.15321,-0.65898c-0.16034,-0.03785 -0.4096,-0.4652 -0.49423,-0.82373c-0.11355,-0.48101 0,-0.82372 0,-1.31796c0,-0.32949 0.02377,-0.81287 0.16475,-1.15321c0.19937,-0.48131 0.30948,-0.74027 0.82372,-0.82372c0.48785,-0.07917 1.31796,-0.16475 2.47117,-0.16475c2.30643,0 4.4481,0 6.91928,0c1.81219,0 3.13015,0 4.28336,0c0.49423,0 0.79469,-0.08011 1.15321,-0.16475c0.16034,-0.03785 0.1173,-0.16172 0.98847,-0.32949c0.32354,-0.06231 0.98847,0 1.64745,0c0.82372,0 1.65362,-0.10065 2.47117,0c0.67417,0.083 1.00101,0.1017 1.15321,0.16475c0.21525,0.08916 0.4652,0.24485 0.82372,0.32949c0.48101,0.11355 1.01355,0.03865 1.31796,0.16475c0.4305,0.17832 0.82372,0.65898 1.15321,0.82372c0,0 0.32949,0.16475 0.65898,0.32949l0,0.16475l0,0.32949l0,0.16475" id="svg_2" stroke="#000" fill="none"/>
 </g>
</svg>