<svg width="24" height="24" viewBox="0 0 24 24" fill="none" xmlns="http://www.w3.org/2000/svg">
<g clip-path="url(#clip0_21_84)">
<path d="M23 19C23 19.342 22.8379 19.7583 22.3552 20.2338C21.869 20.7128 21.1141 21.1902 20.1007 21.6125C18.0781 22.4552 15.2147 23 12 23C8.78532 23 5.92188 22.4552 3.89933 21.6125C2.88587 21.1902 2.13101 20.7128 1.6448 20.2338C1.16211 19.7583 1 19.342 1 19C1 18.658 1.16211 18.2417 1.6448 17.7662C2.13101 17.2872 2.88587 16.8098 3.89933 16.3875C5.92188 15.5448 8.78532 15 12 15C15.2147 15 18.0781 15.5448 20.1007 16.3875C21.1141 16.8098 21.869 17.2872 22.3552 17.7662C22.8379 18.2417 23 18.658 23 19Z" stroke="white" stroke-width="2"/>
<path d="M1.1 18.5L10.2652 2.52396C11.0338 1.18427 12.9662 1.18426 13.7348 2.52396L22.9 18.5" stroke="white" stroke-width="2"/>
</g>
<defs>
<clipPath id="clip0_21_84">
<rect width="24" height="24" fill="white"/>
</clipPath>
</defs>
</svg>
