<svg width="24" height="24" viewBox="0 0 24 24" fill="none" xmlns="http://www.w3.org/2000/svg">
<g clip-path="url(#clip0_21_15)">
<path d="M12 9.80811L1.10383 5.83465M12 9.80811L22.8995 5.84779M12 9.80811V22.9999M3.60942 20.148L10.6983 22.6841C11.1807 22.8567 11.4219 22.9429 11.6693 22.9772C11.8888 23.0076 12.1112 23.0076 12.3307 22.9772C12.5781 22.9429 12.8193 22.8567 13.3017 22.6841L20.3906 20.148C21.3301 19.8119 21.7998 19.6439 22.1466 19.3425C22.4528 19.0764 22.6894 18.7376 22.8351 18.3563C23 17.9245 23 17.4196 23 16.4096V7.59027C23 6.5804 23 6.07548 22.8351 5.64373C22.6894 5.26241 22.4528 4.92357 22.1466 4.65741C21.7998 4.35607 21.3301 4.18802 20.3906 3.85191L13.3017 1.31589C12.8193 1.14331 12.5781 1.05702 12.3307 1.02278C12.1112 0.992406 11.8888 0.992406 11.6693 1.02278C11.4219 1.05702 11.1807 1.14331 10.6983 1.31589L3.60942 3.85191C2.66991 4.18802 2.20016 4.35607 1.8534 4.65741C1.54714 4.92357 1.31062 5.26241 1.16494 5.64373C1 6.07548 1 6.5804 1 7.59027V16.4096C1 17.4196 1 17.9245 1.16494 18.3563C1.31062 18.7376 1.54714 19.0764 1.8534 19.3425C2.20016 19.6439 2.66991 19.8119 3.60942 20.148Z" stroke="white" stroke-width="2" stroke-linecap="round" stroke-linejoin="round"/>
</g>
<defs>
<clipPath id="clip0_21_15">
<rect width="24" height="24" fill="white"/>
</clipPath>
</defs>
</svg>
