<svg width="24" height="24" viewBox="0 0 24 24" fill="none" xmlns="http://www.w3.org/2000/svg">
<g clip-path="url(#clip0_22_104)">
<path d="M23 5C23 5.342 22.8379 5.75833 22.3552 6.23384C21.869 6.71281 21.1141 7.19018 20.1007 7.61246C18.0781 8.45519 15.2147 9 12 9C8.78532 9 5.92188 8.45519 3.89933 7.61246C2.88587 7.19018 2.13101 6.71281 1.6448 6.23384C1.16211 5.75833 1 5.342 1 5C1 4.658 1.16211 4.24167 1.6448 3.76616C2.13101 3.28719 2.88587 2.80982 3.89933 2.38754C5.92188 1.54481 8.78532 1 12 1C15.2147 1 18.0781 1.54481 20.1007 2.38754C21.1141 2.80982 21.869 3.28719 22.3552 3.76616C22.8379 4.24167 23 4.658 23 5Z" stroke="white" stroke-width="2"/>
<path d="M1 5V18.7165C1 19.5608 1.48011 20.3316 2.23787 20.7039V20.7039C8.39462 23.7287 15.6081 23.728 21.7653 20.7041V20.7041C22.5234 20.3318 23.0041 19.5605 23.0041 18.7159L23.0041 5" stroke="white" stroke-width="2"/>
</g>
<defs>
<clipPath id="clip0_22_104">
<rect width="24" height="24" fill="white"/>
</clipPath>
</defs>
</svg>
