<svg width="50" height="50" xmlns="http://www.w3.org/2000/svg">
 <g id="Layer_1">
  <title>Layer 1</title>
  <path d="m10.20428,13.67666c0,0.65898 0.05882,1.65913 -0.32949,3.45964c-0.1432,0.66399 -0.4623,1.98195 -0.65898,3.13015c-0.14183,0.82798 -0.32949,1.4827 -0.32949,2.47117c0,0.82372 0,1.64745 0,2.47117c0,0.98847 -0.03931,1.81955 0.16475,2.80066c0.13832,0.66503 0.16474,1.4827 0.16474,2.14168c0,0.98847 0.08216,1.80341 0.16474,2.9654c0.04671,0.65732 0,1.31796 0,2.14168c0,0.32949 0.13836,0.66111 0.16474,0.82372c0.08345,0.51424 0.16475,0.98847 0.32949,1.64745c0.16474,0.65898 0.16474,1.15321 0.32949,1.64745l0,0.16474" id="svg_6" stroke="#000" fill="none"/>
  <path d="m27.66721,13.18243c0,0.49423 -0.16474,1.31796 -0.16474,2.63591c0,0.98847 0,1.97694 0,3.13015c0,0.82372 0,1.64745 0,2.63591c0,0.98847 0,2.14168 0,2.9654c0,0.82372 0,1.97693 0,3.29489c0,0.65898 -0.16475,1.31796 -0.16475,1.64745c0,0.49423 0,0.82372 0,0.82372c0,0.49423 0,0.82372 0,1.31796c0,0.32949 0,1.15321 0,1.31796c0,0.49423 0.16475,0.82372 0.16475,0.98847c0,0.16474 0,0.32949 0.16474,0.49423l0,0.16475l0,0.16475l0.82372,4.4481" id="svg_7" stroke="#000" fill="none"/>
  <path d="m11.028,39.04734c-0.32949,0 -0.49423,0 -0.65898,0c-0.16475,0 -0.27899,0.07558 -0.49423,0.16475c-0.30441,0.12609 -0.49423,0.16475 -0.49423,0.16475c-0.16474,0.16474 -0.19326,0.30523 -0.32949,0.49423c-0.2154,0.29885 -0.32949,0.49424 -0.32949,0.82372c0,0.49424 -0.05065,0.85437 0.16474,1.15321c0.13623,0.18901 0.44571,0.55127 0.82372,0.82372c0.29885,0.2154 0.8144,0.18908 1.64745,0.49423c0.48918,0.17919 1.81219,0.49424 2.63591,0.49424c2.14168,0 3.62438,0 4.94234,0c1.4827,0 2.9654,0 4.11862,0c0.82372,0 1.31796,0 1.64745,0c0.16475,0 0.33044,0.03071 0.82372,0c1.32565,-0.08253 1.64149,-0.34858 2.14168,-0.49424c0.65217,-0.18991 0.89931,-0.27898 0.98847,-0.49423c0.06305,-0.15221 0.24033,-0.44373 0.32949,-0.65898c0.12609,-0.30441 0,-0.82372 0,-1.15321c0,-0.32949 -0.02852,-0.63472 -0.16475,-0.82372c-0.2154,-0.29885 -0.2626,-0.57875 -0.65898,-0.82372c-0.44316,-0.27389 -1.49121,-0.22393 -2.14168,-0.32949c-1.02848,-0.1669 -2.49918,-0.3465 -4.61285,-0.82372c-1.67775,-0.3788 -3.28216,-0.89546 -4.94234,-1.15321c-1.47416,-0.22887 -2.47117,-0.32949 -3.45964,-0.32949c-0.65898,0 -1.15321,0 -1.4827,0c-0.32949,0 -0.49423,0 -0.49423,0c-0.16474,0.16475 -0.59074,0.0965 -0.82372,0.32949c-0.11649,0.11649 -0.16474,0.32949 -0.49423,0.49424l0,0.16475l-0.16475,0.16474l0,0.16475" id="svg_8" stroke="#000" fill="none"/>
  <path d="m11.028,14.00615c-0.16474,0 -0.34203,-0.06304 -0.49423,0c-0.21525,0.08916 13.67381,3.78913 13.83855,3.78913c0,0 0.3143,-0.2465 0.98847,-0.32949c0.32702,-0.04026 0.82813,-0.29164 0.98847,-0.32949c0.35853,-0.08464 0.65898,-0.16474 0.82372,-0.32949c0.16475,-0.16475 0.32949,-0.16475 0.32949,-0.49423c0,-0.16475 0,-0.16475 0,-0.32949c0,-0.32949 0,-0.49423 0,-0.65898c0,-0.16474 -0.14048,-0.68749 -0.32949,-0.82372c-0.29885,-0.21539 -0.68962,-0.60833 -0.98847,-0.82372c-0.18901,-0.13623 -0.68962,-0.27884 -0.98847,-0.49423c-0.18901,-0.13623 -0.50677,-0.1017 -0.65898,-0.16475c-0.21525,-0.08916 -0.2149,0.08744 -0.82372,-0.16474c-0.21525,-0.08916 -0.9897,-0.30936 -1.15321,-0.32949c-0.67417,-0.08299 -1.02609,0.02439 -1.4827,-0.16475c-0.21525,-0.08916 -0.30948,-0.24604 -0.82372,-0.32949c-0.16262,-0.02639 -0.98847,0 -1.64745,-0.16475c-0.65898,-0.16474 -1.31796,-0.32949 -1.81219,-0.32949c-0.32949,0 -0.65898,0 -1.15321,0c-0.32949,0 -0.98847,0 -1.64745,0c-0.49423,0 -1.49152,-0.0757 -1.81219,0c-0.35853,0.08464 -0.35409,0.40762 -0.49423,0.49423c-0.31336,0.19367 -0.29487,0.50716 -0.49423,0.98847c-0.14097,0.34034 -0.16474,0.65898 -0.32949,0.98847l0,0.16474l0,0.16475" id="svg_9" stroke="#000" fill="none"/>
 </g>
</svg>