<svg width="361" height="359" viewBox="0 0 361 359" fill="none" xmlns="http://www.w3.org/2000/svg">
<path d="M86.8504 358.951C134.333 358.951 172.826 320.459 172.826 272.976C172.826 225.493 134.333 187 86.8504 187C39.3674 187 0.874756 225.493 0.874756 272.976C0.874756 320.459 39.3674 358.951 86.8504 358.951Z" fill="white"/>
<path d="M209.176 164.142C209.244 170.493 204.152 175.586 197.801 175.518C191.45 175.449 186.246 170.245 186.177 163.894L185.649 114.897C185.581 108.546 190.674 103.453 197.025 103.522C203.376 103.59 208.58 108.794 208.648 115.145L209.176 164.142Z" fill="white"/>
<path d="M341.126 4.3052C345.617 -0.185832 352.899 -0.185843 357.39 4.30519C361.881 8.79622 361.881 16.0776 357.39 20.5686L205.91 172.048C201.419 176.539 194.138 176.539 189.647 172.048C185.156 167.557 185.156 160.276 189.647 155.785L341.126 4.3052Z" fill="white"/>
<path d="M246.55 153.047C252.901 153.115 258.105 158.319 258.173 164.67C258.242 171.021 253.149 176.114 246.798 176.046L197.801 175.518C191.45 175.449 186.246 170.245 186.177 163.894C186.109 157.544 191.202 152.451 197.553 152.519L246.55 153.047Z" fill="white"/>
<path d="M83.145 129.117C80.0009 134.635 73.0344 136.464 67.585 133.202C62.1356 129.939 60.2668 122.821 63.411 117.303L96.9186 58.4916C100.063 52.9732 107.029 51.1442 112.479 54.4065C117.928 57.6688 119.797 64.7871 116.653 70.3055L83.145 129.117Z" fill="white"/>
<path d="M343.357 2.08066C349.251 -0.286172 355.948 2.57298 358.315 8.46677C360.681 14.3606 357.822 21.0571 351.928 23.424L76.9607 133.846C71.0669 136.213 64.3704 133.354 62.0035 127.46C59.6367 121.566 62.4959 114.869 68.3896 112.503L343.357 2.08066Z" fill="white"/>
<path d="M123.225 119.392C129.511 120.302 133.979 126.15 133.204 132.454C132.43 138.758 126.706 143.13 120.421 142.22L71.9264 135.198C65.6407 134.288 61.1729 128.44 61.9474 122.136C62.7219 115.832 68.4454 111.459 74.7311 112.37L123.225 119.392Z" fill="white"/>
<path d="M244.182 285.138C245.926 291.245 242.359 297.502 236.216 299.114C230.072 300.726 223.679 297.081 221.935 290.974L208.483 243.857C206.739 237.75 210.305 231.492 216.449 229.88C222.592 228.269 228.986 231.913 230.73 238.02L244.182 285.138Z" fill="white"/>
<path d="M336.144 11.0132C338.576 5.14596 345.304 2.36106 351.171 4.79298C357.038 7.22489 359.823 13.9527 357.391 19.8199L243.933 293.549C241.501 299.416 234.774 302.201 228.906 299.769C223.039 297.337 220.254 290.609 222.686 284.742L336.144 11.0132Z" fill="white"/>
<path d="M280.899 237.947C285.947 234.092 293.251 234.991 297.214 239.954C301.176 244.918 300.297 252.066 295.249 255.921L241.206 297.193C236.158 301.047 228.854 300.149 224.891 295.185C220.928 290.222 221.808 283.073 226.856 279.218L280.899 237.947Z" fill="white"/>
</svg>
