<svg width="24" height="24" viewBox="0 0 24 24" fill="none" xmlns="http://www.w3.org/2000/svg">
<g clip-path="url(#clip0_25_183)">
<path d="M4 24C6.20914 24 8 22.2091 8 20C8 17.7909 6.20914 16 4 16C1.79086 16 0 17.7909 0 20C0 22.2091 1.79086 24 4 24Z" fill="white"/>
<path d="M6.4853 11.9785L17.4464 1.01742" stroke="white" stroke-width="1.5" stroke-linecap="round"/>
<path d="M6.48525 11.9785L6.47051 8.96371" stroke="white" stroke-width="1.5" stroke-linecap="round"/>
<path d="M9.5 11.9932L6.48526 11.9785" stroke="white" stroke-width="1.5" stroke-linecap="round"/>
<path d="M0.995185 6.49797L6.47528 1.01792" stroke="white" stroke-width="1.5" stroke-linecap="round"/>
<path d="M0.995138 6.49792L0.98039 3.48318" stroke="white" stroke-width="1.5" stroke-linecap="round"/>
<path d="M4.00989 6.51267L0.99514 6.49792" stroke="white" stroke-width="1.5" stroke-linecap="round"/>
<path d="M17.4856 22.9941L22.9657 17.514" stroke="white" stroke-width="1.5" stroke-linecap="round"/>
<path d="M17.4852 22.9944L17.4704 19.9797" stroke="white" stroke-width="1.5" stroke-linecap="round"/>
<path d="M20.4999 23.0091L17.4852 22.9944" stroke="white" stroke-width="1.5" stroke-linecap="round"/>
<path d="M12.0524 17.547L23.036 6.56336" stroke="white" stroke-width="1.5" stroke-linecap="round"/>
<path d="M12.0524 17.5469L12.0376 14.5322" stroke="white" stroke-width="1.5" stroke-linecap="round"/>
<path d="M15.0671 17.5617L12.0524 17.5469" stroke="white" stroke-width="1.5" stroke-linecap="round"/>
</g>
<defs>
<clipPath id="clip0_25_183">
<rect width="24" height="24" fill="white"/>
</clipPath>
</defs>
</svg>
