<svg width="471" height="492" viewBox="0 0 471 492" fill="none" xmlns="http://www.w3.org/2000/svg">
<circle cx="153.5" cy="338.5" r="141" stroke="white" stroke-width="25"/>
<path d="M260.08 204C260.08 208.142 263.438 211.5 267.58 211.5H335.08C339.222 211.5 342.58 208.142 342.58 204C342.58 199.858 339.222 196.5 335.08 196.5H275.08V136.5C275.08 132.358 271.722 129 267.58 129C263.438 129 260.08 132.358 260.08 136.5V204ZM458.277 2.6967L262.277 198.697L272.883 209.303L468.883 13.3033L458.277 2.6967Z" fill="white"/>
<path d="M354.439 369.634C356.446 373.257 361.01 374.568 364.634 372.561L423.681 339.855C427.305 337.849 428.615 333.284 426.608 329.661C424.601 326.037 420.037 324.727 416.414 326.734L363.927 355.805L334.855 303.319C332.848 299.695 328.284 298.385 324.661 300.392C321.037 302.399 319.727 306.963 321.734 310.586L354.439 369.634ZM456.573 5.93037L353.791 363.93L368.209 368.07L470.99 10.0696L456.573 5.93037Z" fill="white"/>
<path d="M119.178 130.885C117.457 134.653 119.117 139.102 122.885 140.822L184.286 168.861C188.054 170.581 192.503 168.922 194.224 165.154C195.944 161.386 194.284 156.936 190.517 155.216L135.938 130.293L160.861 75.7142C162.581 71.9463 160.922 67.497 157.154 65.7765C153.386 64.0559 148.936 65.7156 147.216 69.4834L119.178 130.885ZM461.16 0.972973L123.379 126.973L128.621 141.027L466.403 15.027L461.16 0.972973Z" fill="white"/>
<circle cx="462.5" cy="9.5" r="8.5" fill="white"/>
</svg>
