<svg width="50" height="50" xmlns="http://www.w3.org/2000/svg">
 <g id="Layer_1">
  <title>Layer 1</title>
  <path d="m11.028,30.97485c0,-0.49423 -0.08117,-0.66299 0,-1.4827c0.08278,-0.83595 0.40336,-1.45068 0.65898,-2.14168c0.23567,-0.63707 0.1452,-0.99262 0.32949,-1.81219c0.14902,-0.66271 0.49423,-1.15321 0.65898,-1.64745c0.16474,-0.49423 0.6454,-0.88746 0.82372,-1.31796c0.25218,-0.60882 0.44714,-1.18808 0.82372,-1.64745c0.14771,-0.18018 0.32949,-0.65898 0.65898,-0.82372c0.32949,-0.16475 0.57044,-0.12358 0.98847,-0.65898c0.10139,-0.12985 0.44571,-0.38652 0.82372,-0.65898c0.29885,-0.2154 0.83223,-0.05919 1.4827,-0.16475c0.51424,-0.08345 0.98847,-0.16475 1.4827,-0.16475c0.16474,0 13.83855,4.11862 14.00329,4.28336c0.16475,0.16474 0.36618,0.44876 0.98847,0.98847c0.52803,0.45795 0.77322,0.73456 0.98847,0.82372c0.15221,0.06305 0.24033,0.11424 0.32949,0.32949c0.12609,0.30441 0.18178,0.4788 0.32949,0.65898c0.37659,0.45936 0.49424,0.65898 0.49424,0.82372c0,0.65898 0.0813,0.80372 0.16474,1.31796c0.02639,0.16262 -0.11355,0.50746 0,0.98847c0.08464,0.35853 0.32949,0.32949 0.32949,0.49423c0,0.32949 0,0.49423 0,0.65898c0,0.16475 0,0.32949 0,0.49423c0,0.32949 -0.06305,0.67152 0,0.82372c0.08916,0.21525 0.16475,0.32949 0.16475,0.49423c0,0.16475 0.0813,0.47423 0.16475,0.98847c0.05278,0.32524 0,0.49424 0,0.82372c0,0.16475 0,0.16475 0,0.49424c0,0.32949 0,0.49423 0.16474,0.49423l0,0" id="svg_25" stroke="#000" fill="none"/>
  <path d="m11.68698,31.13959c-0.32949,0 -0.49423,0 -0.65898,0c-0.16474,0 -0.86135,-0.18913 -1.31796,0c-0.21525,0.08916 -0.32949,0.16475 -0.32949,0.49423c0,0.32949 0,0.32949 0,0.49424c0,0.16474 -0.08117,0.35087 0,0.49423c0.4733,0.83593 1.48685,0.80417 2.30643,0.98847c0.66271,0.14902 1.30658,0.5334 1.81219,0.65898c0.97255,0.24156 1.58937,0.32496 2.30643,0.49424c0.80169,0.18925 1.80614,0.19117 2.47117,0.32949c0.98111,0.20406 1.49121,0.05919 2.14168,0.16475c0.51424,0.08345 1.15815,0.41372 1.81219,0.49424c0.67417,0.08299 1.81219,0.32949 2.63592,0.49423c0.82372,0.16475 1.81219,0.32949 3.29489,0.32949c0.82372,0 1.81219,0 2.63592,0c1.15321,0 2.14168,0 2.80066,0c0.49424,0 0.82372,0 1.15321,0c0.32949,0 0.49423,0 1.15321,0c0.32949,0 0.68962,-0.11409 0.98847,-0.32949c0.189,-0.13623 0.32949,-0.16475 0.32949,-0.16475c0,-0.16475 0,-0.49423 0,-0.82372c0,-0.16475 -0.02377,-0.48338 -0.16475,-0.82372c-0.19936,-0.48131 -0.52047,-0.59483 -0.98847,-0.82372c-0.53359,-0.26097 -1.23629,-0.42735 -1.97693,-0.82372c-0.20542,-0.10994 -0.47423,-0.24604 -0.98847,-0.32949c-0.32524,-0.05278 -1.15823,-0.13281 -2.30643,-0.32949c-0.82798,-0.14183 -1.50461,-0.25857 -2.14168,-0.49424c-0.691,-0.25562 -0.97328,-0.41124 -1.64745,-0.49423c-0.49053,-0.06039 -1.15321,0 -1.81219,0c-1.15321,0 -4.64599,-6.82534 -15.15651,-0.32949c-0.31336,0.19367 -0.32949,0.49423 -0.32949,0.65898c0,0.16474 0,0.32949 0,0.49423l0.32949,0l0.32949,0" id="svg_26" stroke="#000" fill="none"/>
 </g>
</svg>