<svg width="24" height="24" viewBox="0 0 24 24" fill="none" xmlns="http://www.w3.org/2000/svg">
<g clip-path="url(#clip0_24_161)">
<path d="M23 11.5C23 18.1274 18.0751 23 12 23C5.92487 23 1 18.1274 1 11.5" stroke="white" stroke-width="2"/>
<path d="M23 12C23 12.342 22.8379 12.7583 22.3552 13.2338C21.869 13.7128 21.1141 14.1902 20.1007 14.6125C18.0781 15.4552 15.2147 16 12 16C8.78532 16 5.92188 15.4552 3.89933 14.6125C2.88587 14.1902 2.13101 13.7128 1.6448 13.2338C1.16211 12.7583 1 12.342 1 12C1 11.658 1.16211 11.2417 1.6448 10.7662C2.13101 10.2872 2.88587 9.80982 3.89933 9.38754C5.92188 8.54481 8.78532 8 12 8C15.2147 8 18.0781 8.54481 20.1007 9.38754C21.1141 9.80982 21.869 10.2872 22.3552 10.7662C22.8379 11.2417 23 11.658 23 12Z" stroke="white" stroke-width="2"/>
</g>
<defs>
<clipPath id="clip0_24_161">
<rect width="24" height="24" fill="white"/>
</clipPath>
</defs>
</svg>
