<svg width="50" height="50" xmlns="http://www.w3.org/2000/svg">
 <g id="Layer_1">
  <title>Layer 1</title>
  <path d="m11.85173,35.25821c0,0 -0.0505,-0.24033 0.16475,-0.32949c0.30441,-0.12609 0.60847,-0.40508 0.82372,-0.49424c0.30441,-0.12609 0.39791,-0.0311 0.49423,-0.16475c0.30462,-0.42263 0.81287,-0.51801 1.15321,-0.65898c0.48131,-0.19937 0.88746,-0.6454 1.31796,-0.82372c0.45661,-0.18914 1.01911,-0.27884 1.31796,-0.49424c0.37801,-0.27245 0.68962,-0.27884 0.98847,-0.49423c0.18901,-0.13623 0.34562,-0.46531 0.65898,-0.65898c0.14014,-0.08661 0.63472,-0.19326 0.82372,-0.32949c0.29885,-0.2154 0.49423,-0.32949 0.82372,-0.49423c0.32949,-0.16475 0.8346,-0.47408 1.15321,-0.65898c0.51375,-0.29814 0.89919,-0.6037 1.4827,-0.98847c0.74065,-0.48838 1.54399,-0.72242 2.14168,-1.15321c0.37801,-0.27246 0.53185,-0.3051 0.98847,-0.49423c0.21525,-0.08916 0.51884,-0.58084 0.65898,-0.49423c0.31336,0.19367 0.18424,0.4165 0.32949,0.49423c0.52371,0.28028 0.57553,0.80372 0.65898,1.31796c0.05278,0.32523 0.48066,0.72271 0.65898,1.15321c0.06305,0.1522 0.54756,0.57993 0.82372,0.82372c0.4453,0.39311 0.98847,0.65898 1.15321,0.82372c0.16475,0.16475 0.54249,0.37774 0.65898,0.49423c0.11649,0.11649 0.55127,0.28097 0.82372,0.65898c0.2154,0.29885 0.76272,0.43244 1.31796,0.82373c0.48554,0.34217 0.9642,0.6875 1.15321,0.82372c0.59769,0.43079 0.95285,0.23394 1.4827,0.65898c0.28735,0.23051 0.47471,0.52558 0.98847,0.82372c0.31861,0.1849 0.63005,0.34561 0.82372,0.65898c0.08661,0.14014 0.32949,0.16475 0.65898,0.49424c0.16475,0.16475 0.39738,0.15956 0.98847,0.49423c0.60823,0.34438 0.76068,0.50677 0.82372,0.65898c0.17832,0.4305 -1.17025,0.6117 -2.14168,0.98847c-1.51275,0.58672 -2.74258,1.31343 -3.45964,1.4827c-0.32067,0.0757 -1.03032,-0.10589 -1.97694,0.32949c-0.87273,0.4014 -1.79981,0.87063 -2.9654,1.15321c-0.81639,0.19792 -1.65425,0.30433 -2.30643,0.49424c-0.50019,0.14566 -1.01334,0.0716 -1.31796,0.49423c-0.09633,0.13365 -0.25521,0.3221 -0.82372,0.49423c-0.15768,0.04774 -0.42599,0.23299 -0.65898,0c-0.11649,-0.11649 -0.23244,-0.44355 -0.98847,-0.98846c-0.59769,-0.43079 -1.22222,-0.72799 -1.4827,-0.98847c-0.26049,-0.26048 -0.13527,-0.54344 -0.65898,-0.82372c-0.2905,-0.15547 -0.52488,-0.11409 -0.82372,-0.32949c-0.37801,-0.27246 -0.65898,-0.65898 -0.82372,-0.82372c-0.32949,-0.32949 -0.87293,-0.48575 -1.15321,-0.65898c-0.31336,-0.19367 -0.3339,-0.45639 -0.49423,-0.49424c-0.35853,-0.08464 -0.52488,-0.27884 -0.82372,-0.49423c-0.37801,-0.27246 -0.65898,-0.49424 -0.98847,-0.65898c-0.32949,-0.16474 -0.68962,-0.44358 -0.98847,-0.65898c-0.18901,-0.13623 -0.49423,-0.32949 -0.65898,-0.32949l-2.9654,-1.31796" id="svg_18" stroke="#000" fill="none"/>
  <path d="m11.85173,34.26974c0,-0.16475 0.16475,-0.65898 0.49423,-1.15321c0.32949,-0.49424 0.56048,-1.07802 1.31796,-1.81219c0.59149,-0.57329 1.16581,-0.97921 1.64745,-1.64745c0.30462,-0.42263 0.81014,-0.9978 1.15321,-1.4827c0.47576,-0.67244 0.90927,-1.08043 1.31796,-1.64745c0.2154,-0.29885 0.49423,-0.82372 0.65898,-1.15321c0.16474,-0.32949 0.32949,-0.49423 0.49423,-0.65898c0.32949,-0.32949 0.44358,-0.68962 0.65898,-0.98847c0.27246,-0.37801 0.61867,-0.84547 0.98847,-1.4827c0.29814,-0.51375 0.61188,-0.85859 0.98847,-1.31796c0.29542,-0.36035 0.49423,-0.65898 0.65898,-0.82372c0.16475,-0.16475 0.01613,-0.46531 0.32949,-0.65898c0.14014,-0.08661 0.16474,-0.16475 0.16474,-0.32949c0,-0.16475 0.24033,-0.27898 0.32949,-0.49423c0.06305,-0.1522 0.16474,-0.49423 0.32949,-0.65898c0.16474,-0.16474 0.16474,-0.16474 0.16474,-0.49423c0,-0.16474 0,-0.32949 0.16475,-0.49423c0,0 0.16475,-0.16475 0.16475,-0.32949l0.16474,0" id="svg_20" stroke="#000" fill="none"/>
  <path d="m26.84349,26.52674c0,0 -0.1017,-0.34203 -0.16474,-0.49423c-0.08916,-0.21525 -0.32949,-0.49423 -0.49423,-0.98847c-0.16475,-0.49423 -0.32949,-0.82372 -0.32949,-0.98847c0,-0.16475 -0.40508,-0.44373 -0.49423,-0.65898c-0.06305,-0.1522 -0.08011,-0.30045 -0.16474,-0.65898c-0.03785,-0.16034 -0.07559,-0.60847 -0.16475,-0.82372c-0.06305,-0.1522 -0.16474,-0.65898 -0.16474,-0.82372c0,0 0.05065,-0.19539 -0.16475,-0.49423c-0.13623,-0.18901 -0.16475,-0.32949 -0.16475,-0.32949c0,-0.32949 0.06304,-0.50677 0,-0.65898c-0.08916,-0.21525 -0.16474,-0.16475 -0.16474,-0.32949c0,-0.16474 0,-0.32949 0,-0.49423c0,-0.16475 0,-0.16475 0,-0.32949c0,-0.16474 0.23298,-0.42599 0,-0.65898c-0.11649,-0.11649 -0.32949,-0.16475 -0.32949,-0.32949l0,-0.16474l0,-0.16475l0,-0.16474" id="svg_21" stroke="#000" fill="none"/>
  <path d="m24.37232,42.17749c0.16474,-0.16475 0.16474,-0.82373 0.16474,-1.4827c0,-1.15321 0,-2.14168 0,-2.9654c0,-0.65898 -0.08175,-1.63226 -0.16474,-2.30642c-0.08051,-0.65404 0,-1.31796 0,-1.97694c0,-0.49423 0.16474,-0.98847 0.16474,-1.4827c0,-0.16475 0,-0.65898 0,-0.82372c0,-0.32949 0,-0.49423 0,-0.82372c0,-0.32949 0,-0.82372 0,-1.15321c0,-0.49423 0,-0.82372 0,-1.31796c0,-0.32949 0,-0.82372 0,-0.98847c0,-0.32949 0,-0.65898 0,-0.82372c0,-0.32949 0.16475,-0.65898 0.16475,-0.65898c0,-0.16475 0,-0.65898 0,-0.98847c0,-0.16474 0,-0.49423 0,-0.65898c0,-0.16475 0,-0.65898 0,-0.98847c0,-0.16475 0,-0.32949 0,-0.82372c0,0 0.08011,-0.4652 0.16475,-0.82372c0.03785,-0.16034 0,-0.49423 0,-0.65898c0,-0.16475 0.24485,-0.4652 0.32949,-0.82372c0.03785,-0.16034 0,-0.16475 0,-0.32949l0,-0.32949l0,-0.32949l0,-0.32949" id="svg_22" stroke="#000" fill="none"/>
  <path d="m39.36408,37.89412c-0.32949,-0.65898 -0.49424,-0.82372 -0.65898,-0.98847c0,0 0.10915,-0.21581 -0.16475,-0.65898c-0.12249,-0.19819 -0.32949,-0.49423 -0.65898,-0.82372c-0.16474,-0.16475 -0.16474,-0.16475 -0.16474,-0.32949c0,-0.16474 0,-0.32949 -0.32949,-0.65898c-0.16475,-0.16475 -0.36814,-0.51931 -0.49423,-0.82372c-0.08916,-0.21525 -0.04893,-0.43062 -0.49424,-0.82372c-0.27617,-0.2438 -0.32949,-0.65898 -0.65898,-0.82372c0,0 -0.24033,-0.11424 -0.32949,-0.32949c-0.06305,-0.1522 -0.03865,-0.51931 -0.16475,-0.82372c-0.17832,-0.4305 -0.54248,-0.37774 -0.65898,-0.49423c-0.34948,-0.34948 -0.35801,-0.79946 -0.49423,-0.98847c-0.21539,-0.29885 -0.40508,-0.60847 -0.49424,-0.82372c-0.12609,-0.30441 -0.19326,-0.46997 -0.32949,-0.65898c-0.2154,-0.29885 -0.40508,-0.44373 -0.49424,-0.65898c-0.06305,-0.1522 -0.04825,-0.213 -0.16475,-0.32949c-0.23299,-0.23298 0.0471,-0.52911 -0.32949,-0.98847c-0.29542,-0.36035 -0.23401,-0.50837 -0.32949,-0.82372c-0.17213,-0.56851 -0.63259,-0.66111 -0.65898,-0.82372c-0.08345,-0.51424 -0.32949,-0.65898 -0.49423,-0.82372c-0.16475,-0.16475 -0.37774,-0.37774 -0.49423,-0.49423c-0.11649,-0.11649 0,-0.16474 -0.16475,-0.49423c-0.16475,-0.32949 -0.42599,-0.26125 -0.65898,-0.49423c-0.23298,-0.23298 -0.18935,-0.57237 -0.32949,-0.65898c-0.31336,-0.19367 -0.56982,-0.60847 -0.65898,-0.82372c-0.06305,-0.1522 0.14862,-0.30057 -0.16475,-0.49423c-0.14014,-0.08661 -0.32949,-0.16475 -0.82372,-0.49423c0,0 -0.11409,-0.19539 -0.32949,-0.49423c-0.13623,-0.189 -0.32949,-0.32949 -0.32949,-0.32949c-0.16474,-0.16475 -0.12689,-0.3339 -0.16474,-0.49423c-0.08464,-0.35853 -0.27884,-0.36013 -0.49423,-0.65898c-0.13623,-0.18901 -0.11424,-0.40507 -0.32949,-0.49423c-0.1522,-0.06304 -0.32949,-0.16475 -0.65898,-0.32949c0,0 -0.16475,0 -0.49423,-0.16474l0,-0.16475" id="svg_23" stroke="#000" fill="none"/>
 </g>
</svg>