<svg width="50" height="50" xmlns="http://www.w3.org/2000/svg">
 <g id="Layer_1">
  <title>Layer 1</title>
  <path d="m10.20428,33.11653c0,-0.32949 0.16475,-0.32949 0.49423,-0.32949c0.32949,0 0.82619,-0.12449 1.15321,-0.16475c0.67417,-0.083 0.96846,-0.57553 1.4827,-0.65898c0.32523,-0.05278 1.05117,-0.5673 1.97694,-0.82372c0.79384,-0.21988 1.64991,-0.28923 1.97694,-0.32949c0.67417,-0.08299 0.98847,-0.32949 1.15321,-0.32949c0.16474,0 0.32949,-0.16475 0.98847,-0.16475c0.16474,0 0.82372,-0.16474 1.31796,-0.16474c0.32949,0 0.49527,-0.30338 0.82372,-0.32949c4.15788,-0.33053 4.23285,-0.89931 4.4481,-0.98847c0.30441,-0.12609 0.65159,0.25522 0.82372,0.82372c0.19096,0.6307 0.48066,1.0522 0.65898,1.4827c0.12609,0.30441 0.24485,0.4652 0.32949,0.82372c0.03785,0.16034 -0.01185,0.26541 0.32949,0.65898c0.24136,0.2783 0.3985,0.56324 0.65898,0.82372c0.26048,0.26048 0.49423,0.49424 0.65898,0.98847c0,0 -0.14862,0.63005 0.16475,0.82372c0.14014,0.08661 0.24033,-0.0505 0.32949,0.16475c0.06305,0.15221 0.15117,0.39322 0.32949,0.82372c0.12609,0.30441 0.04825,0.70723 0.16474,0.82372c0.11649,0.11649 0.15627,0.3787 0.32949,0.65898c0.19367,0.31336 0.32949,0.32949 0.32949,0.49424c0,0.16475 0.32949,0.32949 0.32949,0.32949c0.16475,0 0.4096,0.1357 0.49423,0.49423c0.0757,0.32067 0.16475,0.49423 0.32949,0.65898l0.16474,0.32949" id="svg_11" stroke="#000" fill="none"/>
  <path d="m10.53377,32.95179c0.16474,0 0.32949,0 0.49423,0.16475c0.16474,0.16474 0.66195,0.29833 0.82372,0.32949c0.87117,0.16777 1.15747,0.44146 1.4827,0.49424c0.51424,0.08345 0.94845,0.32733 1.97694,0.49423c0.48785,0.07917 1.15321,0.16475 1.4827,0.16475c0.16475,0 0.16915,-0.03785 0.32949,0c0.35853,0.08464 0.71005,0.0556 1.15321,0.32949c0.19819,0.12249 0.49423,0.32949 0.82372,0.32949c0.49423,0 0.95943,0.08011 1.31796,0.16475c0.16034,0.03785 10.21417,3.95387 10.54366,4.11861l0.16475,0l0,0" id="svg_12" stroke="#000" fill="none"/>
  <path d="m11.19275,32.78704c-0.16474,0 -0.12249,0.03344 0,-0.16475c0.27389,-0.44316 0.34275,-0.73919 0.65898,-1.15321c0.36055,-0.47205 0.77095,-0.99272 0.82372,-1.31796c0.08345,-0.51424 0.53117,-1.13721 0.65898,-1.4827c0.23567,-0.63707 0.74349,-1.25107 0.98847,-1.64745c0.27389,-0.44316 0.16474,-0.65898 0.32949,-0.82372c0.16474,-0.16474 0.56982,-0.60847 0.65898,-0.82372c0.06305,-0.1522 0.32949,-0.32949 0.49423,-0.65898c0.16474,-0.32949 0.32949,-0.32949 0.32949,-0.32949c0.16474,-0.16474 0.30523,-0.52275 0.49423,-0.65898c0.29885,-0.21539 0.52488,-0.77307 0.82372,-0.98847c0.18901,-0.13623 0.24288,-0.35409 0.32949,-0.49423c0.19367,-0.31336 0.51884,-0.24288 0.65898,-0.32949c0.31336,-0.19367 -0.09314,-0.51911 0.32949,-0.82372c0.13365,-0.09633 0.40508,-0.27898 0.49423,-0.49423c0.12609,-0.30441 0.1269,-0.3339 0.16475,-0.49423c0.16927,-0.71705 0.6454,-0.72272 0.82372,-1.15321c0.12609,-0.30441 0.32949,-0.98847 0.49423,-1.15321l0.32949,-0.16475l0,-0.16475l0,-0.16474" id="svg_13" stroke="#000" fill="none"/>
  <path d="m25.85502,28.50368c-0.16474,-0.32949 -0.32949,-0.65898 -0.32949,-0.82372c0,-0.98847 -0.22884,-1.48887 -0.32949,-2.30643c-0.08299,-0.67417 -0.25032,-1.32434 -0.32949,-1.81219c-0.08345,-0.51424 -0.29487,-0.83665 -0.49423,-1.31796c-0.14097,-0.34034 -0.24485,-0.79469 -0.32949,-1.15321c-0.1514,-0.64135 -0.1017,-0.83626 -0.16474,-0.98847c-0.08916,-0.21525 -0.16475,-0.32949 -0.32949,-0.65898c0,0 -0.12689,-0.16915 -0.16474,-0.32949c-0.08464,-0.35853 -0.32949,-0.49423 -0.32949,-0.49423c-0.16475,-0.16475 -0.24033,-0.60847 -0.32949,-0.82372c-0.06305,-0.1522 0,-0.32949 0,-0.49423c0,-0.16475 -0.16474,-0.32949 -0.32949,-0.65898l-0.32949,-0.49423" id="svg_14" stroke="#000" fill="none"/>
  <polyline stroke-linecap="round" id="svg_15" points="54.850078095136645,20.76068148736175 55.01482273627403,20.76068148736175 " stroke="#000" fill="none"/>
  <path d="m21.07743,16.14783c0,0.16475 0.24485,0.30046 0.32949,0.65898c0.03785,0.16034 -0.02639,0.33162 0,0.49423c0.08345,0.51424 0.24604,0.96846 0.32949,1.4827c0.05278,0.32523 0,0.98847 0,1.4827c0,0.49423 0.0813,0.80371 0.16475,1.31796c0.05278,0.32524 -0.12609,0.68406 0,0.98847c0.08916,0.21525 0.24604,0.30948 0.32949,0.82372c0.02639,0.16262 0.07559,0.11424 0.16475,0.32949c0.06305,0.1522 -0.03785,0.3339 0,0.49423c0.08464,0.35853 0.16475,0.49423 0.32949,0.82372c0.16475,0.32949 0.06927,0.34363 0.16475,0.65898c0.17213,0.56851 0.51332,0.81776 0.65898,1.31796c0.18991,0.65217 0.22034,1.03954 0.49423,1.4827c0.24497,0.39638 0.37175,0.79028 0.49423,0.98847c0.27389,0.44316 0.29487,0.83665 0.49423,1.31796c0.14097,0.34034 0.32949,0.82372 0.49423,1.15321c0.16475,0.32949 0.2034,0.51931 0.32949,0.82372c0.08916,0.21525 0.1141,0.36013 0.32949,0.65898c0.13623,0.18901 0.32949,0.32949 0.49423,0.49424c0.16474,0.16474 0.16474,0.49423 0.16474,0.49423c0.16475,0.16475 0.17729,0.26645 0.32949,0.32949c0.64575,0.26748 0.49424,0.82372 0.82372,1.15321c0.16475,0.16475 0.32949,0.32949 0.49423,0.49424c0.16474,0.16475 0.11424,0.40508 0.32949,0.49423c0.1522,0.06305 0.17797,0.22676 0.82372,0.49424c0.1522,0.06305 0.32949,0.32949 0.49423,0.32949c0.16475,0 0.49423,0.16475 0.65898,0.32949l0.16474,0.16475l0.16475,0.16475" id="svg_16" stroke="#000" fill="none"/>
 </g>
</svg>